<?xml version="1.0" encoding="UTF-8" standalone="no"?>
<!DOCTYPE svg PUBLIC "-//W3C//DTD SVG 1.1//EN"
 "http://www.w3.org/Graphics/SVG/1.1/DTD/svg11.dtd">
<!-- Generated by graphviz version 12.2.1 (20241206.2353)
 -->
<!-- Title: OntologyStructural Pages: 1 -->
<svg width="732pt" height="422pt"
 viewBox="0.00 0.00 731.50 422.00" xmlns="http://www.w3.org/2000/svg" xmlns:xlink="http://www.w3.org/1999/xlink">
<g id="graph0" class="graph" transform="scale(1 1) rotate(0) translate(4 418)">
<title>OntologyStructural</title>
<polygon fill="white" stroke="none" points="-4,4 -4,-418 727.5,-418 727.5,4 -4,4"/>
<!-- Collection -->
<g id="node1" class="node">
<title>Collection</title>
<path fill="#e8f4fd" stroke="#2c3e50" d="M708.5,-414C708.5,-414 662.5,-414 662.5,-414 656.5,-414 650.5,-408 650.5,-402 650.5,-402 650.5,-390 650.5,-390 650.5,-384 656.5,-378 662.5,-378 662.5,-378 708.5,-378 708.5,-378 714.5,-378 720.5,-384 720.5,-390 720.5,-390 720.5,-402 720.5,-402 720.5,-408 714.5,-414 708.5,-414"/>
<text text-anchor="middle" x="685.5" y="-390.98" font-family="Helvetica,sans-Serif" font-size="12.00">Collection</text>
</g>
<!-- Country -->
<g id="node2" class="node">
<title>Country</title>
<path fill="#e8f4fd" stroke="#2c3e50" d="M702.5,-360C702.5,-360 668.5,-360 668.5,-360 662.5,-360 656.5,-354 656.5,-348 656.5,-348 656.5,-336 656.5,-336 656.5,-330 662.5,-324 668.5,-324 668.5,-324 702.5,-324 702.5,-324 708.5,-324 714.5,-330 714.5,-336 714.5,-336 714.5,-348 714.5,-348 714.5,-354 708.5,-360 702.5,-360"/>
<text text-anchor="middle" x="685.5" y="-336.98" font-family="Helvetica,sans-Serif" font-size="12.00">Country</text>
</g>
<!-- Genre -->
<g id="node3" class="node">
<title>Genre</title>
<path fill="#e8f4fd" stroke="#2c3e50" d="M700.5,-306C700.5,-306 670.5,-306 670.5,-306 664.5,-306 658.5,-300 658.5,-294 658.5,-294 658.5,-282 658.5,-282 658.5,-276 664.5,-270 670.5,-270 670.5,-270 700.5,-270 700.5,-270 706.5,-270 712.5,-276 712.5,-282 712.5,-282 712.5,-294 712.5,-294 712.5,-300 706.5,-306 700.5,-306"/>
<text text-anchor="middle" x="685.5" y="-282.98" font-family="Helvetica,sans-Serif" font-size="12.00">Genre</text>
</g>
<!-- Keyword -->
<g id="node4" class="node">
<title>Keyword</title>
<path fill="#e8f4fd" stroke="#2c3e50" d="M705.12,-252C705.12,-252 665.88,-252 665.88,-252 659.88,-252 653.88,-246 653.88,-240 653.88,-240 653.88,-228 653.88,-228 653.88,-222 659.88,-216 665.88,-216 665.88,-216 705.12,-216 705.12,-216 711.12,-216 717.12,-222 717.12,-228 717.12,-228 717.12,-240 717.12,-240 717.12,-246 711.12,-252 705.12,-252"/>
<text text-anchor="middle" x="685.5" y="-228.97" font-family="Helvetica,sans-Serif" font-size="12.00">Keyword</text>
</g>
<!-- Language -->
<g id="node5" class="node">
<title>Language</title>
<path fill="#e8f4fd" stroke="#2c3e50" d="M708.5,-198C708.5,-198 662.5,-198 662.5,-198 656.5,-198 650.5,-192 650.5,-186 650.5,-186 650.5,-174 650.5,-174 650.5,-168 656.5,-162 662.5,-162 662.5,-162 708.5,-162 708.5,-162 714.5,-162 720.5,-168 720.5,-174 720.5,-174 720.5,-186 720.5,-186 720.5,-192 714.5,-198 708.5,-198"/>
<text text-anchor="middle" x="685.5" y="-174.97" font-family="Helvetica,sans-Serif" font-size="12.00">Language</text>
</g>
<!-- MiniTheme -->
<g id="node6" class="node">
<title>MiniTheme</title>
<path fill="#e8f4fd" stroke="#2c3e50" d="M711.5,-144C711.5,-144 659.5,-144 659.5,-144 653.5,-144 647.5,-138 647.5,-132 647.5,-132 647.5,-120 647.5,-120 647.5,-114 653.5,-108 659.5,-108 659.5,-108 711.5,-108 711.5,-108 717.5,-108 723.5,-114 723.5,-120 723.5,-120 723.5,-132 723.5,-132 723.5,-138 717.5,-144 711.5,-144"/>
<text text-anchor="middle" x="685.5" y="-120.97" font-family="Helvetica,sans-Serif" font-size="12.00">MiniTheme</text>
</g>
<!-- Movie -->
<g id="node7" class="node">
<title>Movie</title>
<path fill="#e8f4fd" stroke="#2c3e50" d="M463.75,-225C463.75,-225 433.75,-225 433.75,-225 427.75,-225 421.75,-219 421.75,-213 421.75,-213 421.75,-201 421.75,-201 421.75,-195 427.75,-189 433.75,-189 433.75,-189 463.75,-189 463.75,-189 469.75,-189 475.75,-195 475.75,-201 475.75,-201 475.75,-213 475.75,-213 475.75,-219 469.75,-225 463.75,-225"/>
<text text-anchor="middle" x="448.75" y="-201.97" font-family="Helvetica,sans-Serif" font-size="12.00">Movie</text>
</g>
<!-- Movie&#45;&gt;Collection -->
<g id="edge2" class="edge">
<title>Movie&#45;&gt;Collection</title>
<path fill="none" stroke="#555555" d="M449.51,-225.17C450.16,-256.69 456.28,-321.43 493.75,-356 533.02,-392.23 596.41,-398.98 639.23,-398.84"/>
<polygon fill="#555555" stroke="#555555" points="648.96,-398.67 639.04,-403.34 645.18,-398.74 638.96,-398.85 638.96,-398.85 638.96,-398.85 645.18,-398.74 638.89,-394.35 648.96,-398.67"/>
<text text-anchor="middle" x="561.62" y="-400.44" font-family="Helvetica,sans-Serif" font-size="10.00">BELONGS_TO_COLLECTION</text>
</g>
<!-- Movie&#45;&gt;Country -->
<g id="edge11" class="edge">
<title>Movie&#45;&gt;Country</title>
<path fill="none" stroke="#555555" d="M453.78,-225.5C459.24,-246.1 471.05,-278.88 493.75,-297 537.25,-331.74 603.07,-340.46 644.9,-342.22"/>
<polygon fill="#555555" stroke="#555555" points="654.81,-342.51 644.68,-346.72 651.03,-342.4 644.81,-342.22 644.81,-342.22 644.81,-342.22 651.03,-342.4 644.95,-337.72 654.81,-342.51"/>
<text text-anchor="middle" x="561.62" y="-342.96" font-family="Helvetica,sans-Serif" font-size="10.00">PRODUCED_IN</text>
</g>
<!-- Movie&#45;&gt;Genre -->
<g id="edge4" class="edge">
<title>Movie&#45;&gt;Genre</title>
<path fill="none" stroke="#555555" d="M468.13,-225.2C475.56,-231.66 484.55,-238.45 493.75,-243 543.59,-267.61 607.5,-279.14 647.23,-284.26"/>
<polygon fill="#555555" stroke="#555555" points="657.04,-285.44 646.57,-288.71 653.29,-284.99 647.11,-284.24 647.11,-284.24 647.11,-284.24 653.29,-284.99 647.65,-279.77 657.04,-285.44"/>
<text text-anchor="middle" x="561.62" y="-283.17" font-family="Helvetica,sans-Serif" font-size="10.00">HAS_GENRE</text>
</g>
<!-- Movie&#45;&gt;Keyword -->
<g id="edge5" class="edge">
<title>Movie&#45;&gt;Keyword</title>
<path fill="none" stroke="#555555" d="M476.22,-210.04C516.74,-214.71 594.5,-223.65 642.69,-229.19"/>
<polygon fill="#555555" stroke="#555555" points="652.47,-230.32 642.02,-233.64 648.71,-229.88 642.53,-229.17 642.53,-229.17 642.53,-229.17 648.71,-229.88 643.05,-224.7 652.47,-230.32"/>
<text text-anchor="middle" x="561.62" y="-229.23" font-family="Helvetica,sans-Serif" font-size="10.00">HAS_KEYWORD</text>
</g>
<!-- Movie&#45;&gt;Language -->
<g id="edge13" class="edge">
<title>Movie&#45;&gt;Language</title>
<path fill="none" stroke="#555555" d="M476.16,-200.21C481.92,-198.91 488.02,-197.66 493.75,-196.75 543.2,-188.86 600.5,-184.46 639.29,-182.17"/>
<polygon fill="#555555" stroke="#555555" points="648.99,-181.62 639.26,-186.68 645.22,-181.83 639.01,-182.18 639.01,-182.18 639.01,-182.18 645.22,-181.83 638.75,-177.69 648.99,-181.62"/>
<text text-anchor="middle" x="561.62" y="-198.5" font-family="Helvetica,sans-Serif" font-size="10.00">SPOKEN_IN</text>
</g>
<!-- Movie&#45;&gt;MiniTheme -->
<g id="edge6" class="edge">
<title>Movie&#45;&gt;MiniTheme</title>
<path fill="none" stroke="#555555" d="M466.16,-188.66C473.84,-181.13 483.54,-172.96 493.75,-167.75 538.78,-144.77 596.08,-134.39 636.07,-129.74"/>
<polygon fill="#555555" stroke="#555555" points="645.91,-128.67 636.45,-134.22 642.15,-129.08 635.97,-129.75 635.97,-129.75 635.97,-129.75 642.15,-129.08 635.48,-125.27 645.91,-128.67"/>
<text text-anchor="middle" x="561.62" y="-169.5" font-family="Helvetica,sans-Serif" font-size="10.00">HAS_MINI_THEME</text>
</g>
<!-- Studio -->
<g id="node10" class="node">
<title>Studio</title>
<path fill="#e8f4fd" stroke="#2c3e50" d="M700.5,-90C700.5,-90 670.5,-90 670.5,-90 664.5,-90 658.5,-84 658.5,-78 658.5,-78 658.5,-66 658.5,-66 658.5,-60 664.5,-54 670.5,-54 670.5,-54 700.5,-54 700.5,-54 706.5,-54 712.5,-60 712.5,-66 712.5,-66 712.5,-78 712.5,-78 712.5,-84 706.5,-90 700.5,-90"/>
<text text-anchor="middle" x="685.5" y="-66.97" font-family="Helvetica,sans-Serif" font-size="12.00">Studio</text>
</g>
<!-- Movie&#45;&gt;Studio -->
<g id="edge10" class="edge">
<title>Movie&#45;&gt;Studio</title>
<path fill="none" stroke="#555555" d="M453.59,-188.6C458.92,-167.72 470.65,-134.18 493.75,-115.75 537.93,-80.5 605.24,-72.59 646.97,-71.37"/>
<polygon fill="#555555" stroke="#555555" points="656.8,-71.21 646.87,-75.87 653.02,-71.27 646.8,-71.37 646.8,-71.37 646.8,-71.37 653.02,-71.27 646.72,-66.87 656.8,-71.21"/>
<text text-anchor="middle" x="561.62" y="-117.5" font-family="Helvetica,sans-Serif" font-size="10.00">PRODUCED_BY</text>
</g>
<!-- Theme -->
<g id="node11" class="node">
<title>Theme</title>
<path fill="#e8f4fd" stroke="#2c3e50" d="M700.5,-36C700.5,-36 670.5,-36 670.5,-36 664.5,-36 658.5,-30 658.5,-24 658.5,-24 658.5,-12 658.5,-12 658.5,-6 664.5,0 670.5,0 670.5,0 700.5,0 700.5,0 706.5,0 712.5,-6 712.5,-12 712.5,-12 712.5,-24 712.5,-24 712.5,-30 706.5,-36 700.5,-36"/>
<text text-anchor="middle" x="685.5" y="-12.97" font-family="Helvetica,sans-Serif" font-size="12.00">Theme</text>
</g>
<!-- Movie&#45;&gt;Theme -->
<g id="edge7" class="edge">
<title>Movie&#45;&gt;Theme</title>
<path fill="none" stroke="#555555" d="M449.44,-188.65C449.97,-156.84 455.92,-91.51 493.75,-56.75 535.57,-18.32 604.71,-13.65 647.26,-14.97"/>
<polygon fill="#555555" stroke="#555555" points="657.04,-15.41 646.85,-19.46 653.26,-15.24 647.05,-14.96 647.05,-14.96 647.05,-14.96 653.26,-15.24 647.25,-10.47 657.04,-15.41"/>
<text text-anchor="middle" x="561.62" y="-58.5" font-family="Helvetica,sans-Serif" font-size="10.00">HAS_THEME</text>
</g>
<!-- OscarNom -->
<g id="node8" class="node">
<title>OscarNom</title>
<path fill="#e8f4fd" stroke="#2c3e50" d="M61,-275C61,-275 12,-275 12,-275 6,-275 0,-269 0,-263 0,-263 0,-251 0,-251 0,-245 6,-239 12,-239 12,-239 61,-239 61,-239 67,-239 73,-245 73,-251 73,-251 73,-263 73,-263 73,-269 67,-275 61,-275"/>
<text text-anchor="middle" x="36.5" y="-251.97" font-family="Helvetica,sans-Serif" font-size="12.00">OscarNom</text>
</g>
<!-- OscarNom&#45;&gt;Movie -->
<g id="edge8" class="edge">
<title>OscarNom&#45;&gt;Movie</title>
<path fill="none" stroke="#555555" d="M73.3,-266.9C141.56,-283.72 293.34,-311.2 403.75,-258 414.57,-252.78 423.8,-243.54 430.96,-234.34"/>
<polygon fill="#555555" stroke="#555555" points="436.71,-226.3 434.56,-237.05 434.51,-229.37 430.9,-234.43 430.9,-234.43 430.9,-234.43 434.51,-229.37 427.24,-231.81 436.71,-226.3"/>
<text text-anchor="middle" x="265.75" y="-290.89" font-family="Helvetica,sans-Serif" font-size="10.00">NOMINATED_MOVIE</text>
</g>
<!-- Person -->
<g id="node9" class="node">
<title>Person</title>
<path fill="#e8f4fd" stroke="#2c3e50" d="M280.88,-248C280.88,-248 250.62,-248 250.62,-248 244.62,-248 238.62,-242 238.62,-236 238.62,-236 238.62,-224 238.62,-224 238.62,-218 244.62,-212 250.62,-212 250.62,-212 280.88,-212 280.88,-212 286.88,-212 292.88,-218 292.88,-224 292.88,-224 292.88,-236 292.88,-236 292.88,-242 286.88,-248 280.88,-248"/>
<text text-anchor="middle" x="265.75" y="-224.97" font-family="Helvetica,sans-Serif" font-size="12.00">Person</text>
</g>
<!-- OscarNom&#45;&gt;Person -->
<g id="edge9" class="edge">
<title>OscarNom&#45;&gt;Person</title>
<path fill="none" stroke="#555555" d="M73.26,-252.75C115.28,-247.76 184.67,-239.51 227.38,-234.44"/>
<polygon fill="#555555" stroke="#555555" points="237.2,-233.27 227.8,-238.92 233.45,-233.72 227.27,-234.45 227.27,-234.45 227.27,-234.45 233.45,-233.72 226.74,-229.98 237.2,-233.27"/>
<text text-anchor="middle" x="145" y="-252.23" font-family="Helvetica,sans-Serif" font-size="10.00">NOMINATED_PERSON</text>
</g>
<!-- Person&#45;&gt;Movie -->
<g id="edge1" class="edge">
<title>Person&#45;&gt;Movie</title>
<path fill="none" stroke="#555555" d="M293.14,-236.21C321.2,-241.67 366.58,-247.15 403.75,-236 407.87,-234.76 411.96,-233 415.9,-230.95"/>
<polygon fill="#555555" stroke="#555555" points="424.23,-226.01 417.93,-234.98 420.98,-227.94 415.63,-231.11 415.63,-231.11 415.63,-231.11 420.98,-227.94 413.34,-227.24 424.23,-226.01"/>
<text text-anchor="middle" x="368.12" y="-244.23" font-family="Helvetica,sans-Serif" font-size="10.00">ACTED_IN</text>
</g>
<!-- Person&#45;&gt;Movie -->
<g id="edge15" class="edge">
<title>Person&#45;&gt;Movie</title>
<path fill="none" stroke="#555555" d="M293.07,-226.66C324.03,-222.72 375.65,-216.16 410.66,-211.71"/>
<polygon fill="#555555" stroke="#555555" points="420.19,-210.5 410.84,-216.23 416.44,-210.98 410.27,-211.76 410.27,-211.76 410.27,-211.76 416.44,-210.98 409.7,-207.3 420.19,-210.5"/>
<text text-anchor="middle" x="368.12" y="-222.99" font-family="Helvetica,sans-Serif" font-size="10.00">WORKED_ON</text>
</g>
<!-- User -->
<g id="node12" class="node">
<title>User</title>
<path fill="#e8f4fd" stroke="#2c3e50" d="M280.75,-174C280.75,-174 250.75,-174 250.75,-174 244.75,-174 238.75,-168 238.75,-162 238.75,-162 238.75,-150 238.75,-150 238.75,-144 244.75,-138 250.75,-138 250.75,-138 280.75,-138 280.75,-138 286.75,-138 292.75,-144 292.75,-150 292.75,-150 292.75,-162 292.75,-162 292.75,-168 286.75,-174 280.75,-174"/>
<text text-anchor="middle" x="265.75" y="-150.97" font-family="Helvetica,sans-Serif" font-size="12.00">User</text>
</g>
<!-- User&#45;&gt;Movie -->
<g id="edge3" class="edge">
<title>User&#45;&gt;Movie</title>
<path fill="none" stroke="#555555" d="M293.07,-163.42C324.03,-172.14 375.65,-186.69 410.66,-196.55"/>
<polygon fill="#555555" stroke="#555555" points="420.23,-199.24 409.38,-200.86 416.59,-198.22 410.6,-196.53 410.6,-196.53 410.6,-196.53 416.59,-198.22 411.82,-192.2 420.23,-199.24"/>
<text text-anchor="middle" x="368.12" y="-195.07" font-family="Helvetica,sans-Serif" font-size="10.00">BLACKLISTED</text>
</g>
<!-- User&#45;&gt;Movie -->
<g id="edge12" class="edge">
<title>User&#45;&gt;Movie</title>
<path fill="none" stroke="#555555" d="M293.07,-150.92C321.68,-146.69 368.08,-143.64 403.75,-159.75 413.65,-164.22 422.36,-172.08 429.37,-180.12"/>
<polygon fill="#555555" stroke="#555555" points="435.51,-187.82 425.76,-182.81 433.15,-184.86 429.27,-180 429.27,-180 429.27,-180 433.15,-184.86 432.79,-177.19 435.51,-187.82"/>
<text text-anchor="middle" x="368.12" y="-161.5" font-family="Helvetica,sans-Serif" font-size="10.00">RATED</text>
</g>
<!-- User&#45;&gt;Movie -->
<g id="edge14" class="edge">
<title>User&#45;&gt;Movie</title>
<path fill="none" stroke="#555555" d="M293,-141.93C321.96,-128.49 369.06,-112.98 403.75,-132.75 420.84,-142.49 431.97,-161.76 438.76,-178.22"/>
<polygon fill="#555555" stroke="#555555" points="442.19,-187.37 434.47,-179.59 440.86,-183.83 438.68,-178.01 438.68,-178.01 438.68,-178.01 440.86,-183.83 442.89,-176.43 442.19,-187.37"/>
<text text-anchor="middle" x="368.12" y="-134.5" font-family="Helvetica,sans-Serif" font-size="10.00">WATCHLISTED</text>
</g>
</g>
</svg>
