<?xml version="1.0" encoding="UTF-8" standalone="no"?>
<!DOCTYPE svg PUBLIC "-//W3C//DTD SVG 1.1//EN"
 "http://www.w3.org/Graphics/SVG/1.1/DTD/svg11.dtd">
<!-- Generated by graphviz version 12.2.1 (20241206.2353)
 -->
<!-- Title: OntologyDetailed Pages: 1 -->
<svg width="913pt" height="475pt"
 viewBox="0.00 0.00 912.75 474.50" xmlns="http://www.w3.org/2000/svg" xmlns:xlink="http://www.w3.org/1999/xlink">
<g id="graph0" class="graph" transform="scale(1 1) rotate(0) translate(4 470.5)">
<title>OntologyDetailed</title>
<polygon fill="white" stroke="none" points="-4,4 -4,-470.5 908.75,-470.5 908.75,4 -4,4"/>
<!-- Collection -->
<g id="node1" class="node">
<title>Collection</title>
<path fill="#e8f4fd" stroke="#2c3e50" d="M881.88,-466.5C881.88,-466.5 824.62,-466.5 824.62,-466.5 818.62,-466.5 812.62,-460.5 812.62,-454.5 812.62,-454.5 812.62,-423.5 812.62,-423.5 812.62,-417.5 818.62,-411.5 824.62,-411.5 824.62,-411.5 881.88,-411.5 881.88,-411.5 887.88,-411.5 893.88,-417.5 893.88,-423.5 893.88,-423.5 893.88,-454.5 893.88,-454.5 893.88,-460.5 887.88,-466.5 881.88,-466.5"/>
<text text-anchor="start" x="826.62" y="-453.05" font-family="Helvetica,sans-Serif" font-weight="bold" font-size="11.00">Collection</text>
<text text-anchor="start" x="827.38" y="-443.95" font-family="Helvetica,sans-Serif" font-size="9.00">id: integer 🔑</text>
<text text-anchor="start" x="828.12" y="-434.95" font-family="Helvetica,sans-Serif" font-size="9.00">name: string</text>
<text text-anchor="start" x="827" y="-425.95" font-family="Helvetica,sans-Serif" font-size="9.00">poster: string</text>
<text text-anchor="start" x="820.62" y="-416.95" font-family="Helvetica,sans-Serif" font-size="9.00">backdrop: string</text>
</g>
<!-- Country -->
<g id="node2" class="node">
<title>Country</title>
<path fill="#e8f4fd" stroke="#2c3e50" d="M892.75,-393.5C892.75,-393.5 813.75,-393.5 813.75,-393.5 807.75,-393.5 801.75,-387.5 801.75,-381.5 801.75,-381.5 801.75,-368.5 801.75,-368.5 801.75,-362.5 807.75,-356.5 813.75,-356.5 813.75,-356.5 892.75,-356.5 892.75,-356.5 898.75,-356.5 904.75,-362.5 904.75,-368.5 904.75,-368.5 904.75,-381.5 904.75,-381.5 904.75,-387.5 898.75,-393.5 892.75,-393.5"/>
<text text-anchor="start" x="831.88" y="-380.05" font-family="Helvetica,sans-Serif" font-weight="bold" font-size="11.00">Country</text>
<text text-anchor="start" x="809.75" y="-370.95" font-family="Helvetica,sans-Serif" font-size="9.00">iso_3166_1: string 🔑</text>
<text text-anchor="start" x="828.12" y="-361.95" font-family="Helvetica,sans-Serif" font-size="9.00">name: string</text>
</g>
<!-- Genre -->
<g id="node3" class="node">
<title>Genre</title>
<path fill="#e8f4fd" stroke="#2c3e50" d="M875.12,-338.5C875.12,-338.5 831.38,-338.5 831.38,-338.5 825.38,-338.5 819.38,-332.5 819.38,-326.5 819.38,-326.5 819.38,-313.5 819.38,-313.5 819.38,-307.5 825.38,-301.5 831.38,-301.5 831.38,-301.5 875.12,-301.5 875.12,-301.5 881.12,-301.5 887.12,-307.5 887.12,-313.5 887.12,-313.5 887.12,-326.5 887.12,-326.5 887.12,-332.5 881.12,-338.5 875.12,-338.5"/>
<text text-anchor="start" x="837.5" y="-325.05" font-family="Helvetica,sans-Serif" font-weight="bold" font-size="11.00">Genre</text>
<text text-anchor="start" x="827.38" y="-315.95" font-family="Helvetica,sans-Serif" font-size="9.00">id: integer 🔑</text>
<text text-anchor="start" x="828.12" y="-306.95" font-family="Helvetica,sans-Serif" font-size="9.00">name: string</text>
</g>
<!-- Keyword -->
<g id="node4" class="node">
<title>Keyword</title>
<path fill="#e8f4fd" stroke="#2c3e50" d="M875.12,-283.5C875.12,-283.5 831.38,-283.5 831.38,-283.5 825.38,-283.5 819.38,-277.5 819.38,-271.5 819.38,-271.5 819.38,-258.5 819.38,-258.5 819.38,-252.5 825.38,-246.5 831.38,-246.5 831.38,-246.5 875.12,-246.5 875.12,-246.5 881.12,-246.5 887.12,-252.5 887.12,-258.5 887.12,-258.5 887.12,-271.5 887.12,-271.5 887.12,-277.5 881.12,-283.5 875.12,-283.5"/>
<text text-anchor="start" x="830" y="-270.05" font-family="Helvetica,sans-Serif" font-weight="bold" font-size="11.00">Keyword</text>
<text text-anchor="start" x="827.38" y="-260.95" font-family="Helvetica,sans-Serif" font-size="9.00">id: integer 🔑</text>
<text text-anchor="start" x="828.12" y="-251.95" font-family="Helvetica,sans-Serif" font-size="9.00">name: string</text>
</g>
<!-- Language -->
<g id="node5" class="node">
<title>Language</title>
<path fill="#e8f4fd" stroke="#2c3e50" d="M892,-228C892,-228 814.5,-228 814.5,-228 808.5,-228 802.5,-222 802.5,-216 802.5,-216 802.5,-194 802.5,-194 802.5,-188 808.5,-182 814.5,-182 814.5,-182 892,-182 892,-182 898,-182 904,-188 904,-194 904,-194 904,-216 904,-216 904,-222 898,-228 892,-228"/>
<text text-anchor="start" x="827.38" y="-214.55" font-family="Helvetica,sans-Serif" font-weight="bold" font-size="11.00">Language</text>
<text text-anchor="start" x="812.38" y="-205.45" font-family="Helvetica,sans-Serif" font-size="9.00">iso_639_1: string 🔑</text>
<text text-anchor="start" x="828.12" y="-196.45" font-family="Helvetica,sans-Serif" font-size="9.00">name: string</text>
<text text-anchor="start" x="810.5" y="-187.45" font-family="Helvetica,sans-Serif" font-size="9.00">english_name: string</text>
</g>
<!-- MiniTheme -->
<g id="node6" class="node">
<title>MiniTheme</title>
<path fill="#e8f4fd" stroke="#2c3e50" d="M880,-164C880,-164 826.5,-164 826.5,-164 820.5,-164 814.5,-158 814.5,-152 814.5,-152 814.5,-140 814.5,-140 814.5,-134 820.5,-128 826.5,-128 826.5,-128 880,-128 880,-128 886,-128 892,-134 892,-140 892,-140 892,-152 892,-152 892,-158 886,-164 880,-164"/>
<text text-anchor="start" x="824.75" y="-146.55" font-family="Helvetica,sans-Serif" font-weight="bold" font-size="11.00">MiniTheme</text>
<text text-anchor="start" x="822.5" y="-137.45" font-family="Helvetica,sans-Serif" font-size="9.00">name: string 🔑</text>
</g>
<!-- Movie -->
<g id="node7" class="node">
<title>Movie</title>
<path fill="#e8f4fd" stroke="#2c3e50" d="M618,-348C618,-348 524,-348 524,-348 518,-348 512,-342 512,-336 512,-336 512,-134 512,-134 512,-128 518,-122 524,-122 524,-122 618,-122 618,-122 624,-122 630,-128 630,-134 630,-134 630,-336 630,-336 630,-342 624,-348 618,-348"/>
<text text-anchor="start" x="555.62" y="-334.55" font-family="Helvetica,sans-Serif" font-weight="bold" font-size="11.00">Movie</text>
<text text-anchor="start" x="543.25" y="-325.45" font-family="Helvetica,sans-Serif" font-size="9.00">slug: string 🔑</text>
<text text-anchor="start" x="550.38" y="-316.45" font-family="Helvetica,sans-Serif" font-size="9.00">title: string</text>
<text text-anchor="start" x="532.75" y="-307.45" font-family="Helvetica,sans-Serif" font-size="9.00">release_date: date</text>
<text text-anchor="start" x="548.5" y="-298.45" font-family="Helvetica,sans-Serif" font-size="9.00">rating: float</text>
<text text-anchor="start" x="536.12" y="-289.45" font-family="Helvetica,sans-Serif" font-size="9.00">watchers: integer</text>
<text text-anchor="start" x="539.12" y="-280.45" font-family="Helvetica,sans-Serif" font-size="9.00">runtime: integer</text>
<text text-anchor="start" x="540.25" y="-271.45" font-family="Helvetica,sans-Serif" font-size="9.00">budget: integer</text>
<text text-anchor="start" x="537.62" y="-262.45" font-family="Helvetica,sans-Serif" font-size="9.00">revenue: integer</text>
<text text-anchor="start" x="550" y="-253.45" font-family="Helvetica,sans-Serif" font-size="9.00">plot: string</text>
<text text-anchor="start" x="543.62" y="-244.45" font-family="Helvetica,sans-Serif" font-size="9.00">tagline: string</text>
<text text-anchor="start" x="544.75" y="-235.45" font-family="Helvetica,sans-Serif" font-size="9.00">poster: string</text>
<text text-anchor="start" x="542.88" y="-226.45" font-family="Helvetica,sans-Serif" font-size="9.00">banner: string</text>
<text text-anchor="start" x="545.88" y="-217.45" font-family="Helvetica,sans-Serif" font-size="9.00">trailer: string</text>
<text text-anchor="start" x="520" y="-208.45" font-family="Helvetica,sans-Serif" font-size="9.00">original_language: string</text>
<text text-anchor="start" x="539.88" y="-199.45" font-family="Helvetica,sans-Serif" font-size="9.00">popularity: float</text>
<text text-anchor="start" x="545.5" y="-190.45" font-family="Helvetica,sans-Serif" font-size="9.00">status: string</text>
<text text-anchor="start" x="535.38" y="-181.45" font-family="Helvetica,sans-Serif" font-size="9.00">homepage: string</text>
<text text-anchor="start" x="529.38" y="-172.45" font-family="Helvetica,sans-Serif" font-size="9.00">letterboxd_url: string</text>
<text text-anchor="start" x="539.5" y="-163.45" font-family="Helvetica,sans-Serif" font-size="9.00">imdb_url: string</text>
<text text-anchor="start" x="539.5" y="-154.45" font-family="Helvetica,sans-Serif" font-size="9.00">tmdb_url: string</text>
<text text-anchor="start" x="527.88" y="-145.45" font-family="Helvetica,sans-Serif" font-size="9.00">letterboxd_id: integer</text>
<text text-anchor="start" x="535.38" y="-136.45" font-family="Helvetica,sans-Serif" font-size="9.00">imdb_id: string 🔑</text>
<text text-anchor="start" x="532.38" y="-127.45" font-family="Helvetica,sans-Serif" font-size="9.00">tmdb_id: integer 🔑</text>
</g>
<!-- Movie&#45;&gt;Collection -->
<g id="edge2" class="edge">
<title>Movie&#45;&gt;Collection</title>
<path fill="none" stroke="#555555" d="M617.16,-348.39C625.89,-361.35 636.12,-373.35 648,-383 691.81,-418.57 756.51,-431.62 801.3,-436.37"/>
<polygon fill="#555555" stroke="#555555" points="811.03,-437.29 800.65,-440.82 807.26,-436.93 801.07,-436.34 801.07,-436.34 801.07,-436.34 807.26,-436.93 801.49,-431.86 811.03,-437.29"/>
<text text-anchor="middle" x="715.88" y="-435.75" font-family="Helvetica,sans-Serif" font-size="10.00">BELONGS_TO_COLLECTION</text>
</g>
<!-- Movie&#45;&gt;Country -->
<g id="edge11" class="edge">
<title>Movie&#45;&gt;Country</title>
<path fill="none" stroke="#555555" d="M630.22,-309.8C635.87,-314.69 641.82,-319.18 648,-323 691.28,-349.77 747.82,-362.8 790.43,-369.12"/>
<polygon fill="#555555" stroke="#555555" points="800.3,-370.49 789.77,-373.57 796.55,-369.97 790.39,-369.11 790.39,-369.11 790.39,-369.11 796.55,-369.97 791.01,-364.65 800.3,-370.49"/>
<text text-anchor="middle" x="715.88" y="-369.23" font-family="Helvetica,sans-Serif" font-size="10.00">PRODUCED_IN</text>
</g>
<!-- Movie&#45;&gt;Genre -->
<g id="edge4" class="edge">
<title>Movie&#45;&gt;Genre</title>
<path fill="none" stroke="#555555" d="M630.36,-265.01C636.25,-267.55 642.19,-269.93 648,-272 701.75,-291.13 766.2,-304.82 808.12,-312.57"/>
<polygon fill="#555555" stroke="#555555" points="817.86,-314.33 807.22,-316.98 814.14,-313.66 808.02,-312.55 808.02,-312.55 808.02,-312.55 814.14,-313.66 808.82,-308.12 817.86,-314.33"/>
<text text-anchor="middle" x="715.88" y="-309.48" font-family="Helvetica,sans-Serif" font-size="10.00">HAS_GENRE</text>
</g>
<!-- Movie&#45;&gt;Keyword -->
<g id="edge5" class="edge">
<title>Movie&#45;&gt;Keyword</title>
<path fill="none" stroke="#555555" d="M630.41,-241.25C683.28,-246.91 760,-255.13 807.97,-260.26"/>
<polygon fill="#555555" stroke="#555555" points="817.71,-261.3 807.29,-264.71 813.95,-260.9 807.77,-260.24 807.77,-260.24 807.77,-260.24 813.95,-260.9 808.25,-255.76 817.71,-261.3"/>
<text text-anchor="middle" x="715.88" y="-258.7" font-family="Helvetica,sans-Serif" font-size="10.00">HAS_KEYWORD</text>
</g>
<!-- Movie&#45;&gt;Language -->
<g id="edge13" class="edge">
<title>Movie&#45;&gt;Language</title>
<path fill="none" stroke="#555555" d="M630.41,-228.75C677.49,-223.71 743.48,-216.64 791.24,-211.53"/>
<polygon fill="#555555" stroke="#555555" points="801.14,-210.47 791.68,-216.01 797.38,-210.87 791.2,-211.54 791.2,-211.54 791.2,-211.54 797.38,-210.87 790.72,-207.06 801.14,-210.47"/>
<text text-anchor="middle" x="715.88" y="-227.89" font-family="Helvetica,sans-Serif" font-size="10.00">SPOKEN_IN</text>
</g>
<!-- Movie&#45;&gt;MiniTheme -->
<g id="edge6" class="edge">
<title>Movie&#45;&gt;MiniTheme</title>
<path fill="none" stroke="#555555" d="M630.39,-204.89C636.27,-202.31 642.21,-199.88 648,-197.75 699.85,-178.71 761.6,-164.12 803.53,-155.37"/>
<polygon fill="#555555" stroke="#555555" points="813.08,-153.4 804.19,-159.82 809.37,-154.16 803.28,-155.42 803.28,-155.42 803.28,-155.42 809.37,-154.16 802.38,-151.01 813.08,-153.4"/>
<text text-anchor="middle" x="715.88" y="-199.5" font-family="Helvetica,sans-Serif" font-size="10.00">HAS_MINI_THEME</text>
</g>
<!-- Studio -->
<g id="node10" class="node">
<title>Studio</title>
<path fill="#e8f4fd" stroke="#2c3e50" d="M892,-109.5C892,-109.5 814.5,-109.5 814.5,-109.5 808.5,-109.5 802.5,-103.5 802.5,-97.5 802.5,-97.5 802.5,-66.5 802.5,-66.5 802.5,-60.5 808.5,-54.5 814.5,-54.5 814.5,-54.5 892,-54.5 892,-54.5 898,-54.5 904,-60.5 904,-66.5 904,-66.5 904,-97.5 904,-97.5 904,-103.5 898,-109.5 892,-109.5"/>
<text text-anchor="start" x="836" y="-96.05" font-family="Helvetica,sans-Serif" font-weight="bold" font-size="11.00">Studio</text>
<text text-anchor="start" x="827.38" y="-86.95" font-family="Helvetica,sans-Serif" font-size="9.00">id: integer 🔑</text>
<text text-anchor="start" x="828.12" y="-77.95" font-family="Helvetica,sans-Serif" font-size="9.00">name: string</text>
<text text-anchor="start" x="819.12" y="-68.95" font-family="Helvetica,sans-Serif" font-size="9.00">logo_path: string</text>
<text text-anchor="start" x="810.5" y="-59.95" font-family="Helvetica,sans-Serif" font-size="9.00">origin_country: string</text>
</g>
<!-- Movie&#45;&gt;Studio -->
<g id="edge10" class="edge">
<title>Movie&#45;&gt;Studio</title>
<path fill="none" stroke="#555555" d="M630.29,-158.62C635.93,-153.53 641.85,-148.82 648,-144.75 691.4,-116.04 748.57,-99.95 791.39,-91.27"/>
<polygon fill="#555555" stroke="#555555" points="801.03,-89.4 792.07,-95.72 797.31,-90.12 791.21,-91.31 791.21,-91.31 791.21,-91.31 797.31,-90.12 790.35,-86.89 801.03,-89.4"/>
<text text-anchor="middle" x="715.88" y="-146.5" font-family="Helvetica,sans-Serif" font-size="10.00">PRODUCED_BY</text>
</g>
<!-- Theme -->
<g id="node11" class="node">
<title>Theme</title>
<path fill="#e8f4fd" stroke="#2c3e50" d="M880,-36C880,-36 826.5,-36 826.5,-36 820.5,-36 814.5,-30 814.5,-24 814.5,-24 814.5,-12 814.5,-12 814.5,-6 820.5,0 826.5,0 826.5,0 880,0 880,0 886,0 892,-6 892,-12 892,-12 892,-24 892,-24 892,-30 886,-36 880,-36"/>
<text text-anchor="start" x="835.62" y="-18.55" font-family="Helvetica,sans-Serif" font-weight="bold" font-size="11.00">Theme</text>
<text text-anchor="start" x="822.5" y="-9.45" font-family="Helvetica,sans-Serif" font-size="9.00">name: string 🔑</text>
</g>
<!-- Movie&#45;&gt;Theme -->
<g id="edge7" class="edge">
<title>Movie&#45;&gt;Theme</title>
<path fill="none" stroke="#555555" d="M612.69,-121.86C622.31,-105.76 633.97,-90.65 648,-78.75 691.95,-41.46 758.05,-27.06 803.07,-21.5"/>
<polygon fill="#555555" stroke="#555555" points="812.82,-20.4 803.39,-25.99 809.06,-20.82 802.88,-21.52 802.88,-21.52 802.88,-21.52 809.06,-20.82 802.38,-17.05 812.82,-20.4"/>
<text text-anchor="middle" x="715.88" y="-80.5" font-family="Helvetica,sans-Serif" font-size="10.00">HAS_THEME</text>
</g>
<!-- OscarNom -->
<g id="node8" class="node">
<title>OscarNom</title>
<path fill="#e8f4fd" stroke="#2c3e50" d="M111.25,-372C111.25,-372 12,-372 12,-372 6,-372 0,-366 0,-360 0,-360 0,-284 0,-284 0,-278 6,-272 12,-272 12,-272 111.25,-272 111.25,-272 117.25,-272 123.25,-278 123.25,-284 123.25,-284 123.25,-360 123.25,-360 123.25,-366 117.25,-372 111.25,-372"/>
<text text-anchor="start" x="33.88" y="-358.55" font-family="Helvetica,sans-Serif" font-weight="bold" font-size="11.00">OscarNom</text>
<text text-anchor="start" x="38.75" y="-349.45" font-family="Helvetica,sans-Serif" font-size="9.00">id: string 🔑</text>
<text text-anchor="start" x="24.88" y="-340.45" font-family="Helvetica,sans-Serif" font-size="9.00">ceremony: integer</text>
<text text-anchor="start" x="36.12" y="-331.45" font-family="Helvetica,sans-Serif" font-size="9.00">year: integer</text>
<text text-anchor="start" x="8" y="-322.45" font-family="Helvetica,sans-Serif" font-size="9.00">canonical_category: string</text>
<text text-anchor="start" x="30.5" y="-313.45" font-family="Helvetica,sans-Serif" font-size="9.00">category: string</text>
<text text-anchor="start" x="28.62" y="-304.45" font-family="Helvetica,sans-Serif" font-size="9.00">winner: boolean</text>
<text text-anchor="start" x="36.88" y="-295.45" font-family="Helvetica,sans-Serif" font-size="9.00">detail: string</text>
<text text-anchor="start" x="39.12" y="-286.45" font-family="Helvetica,sans-Serif" font-size="9.00">note: string</text>
<text text-anchor="start" x="33.5" y="-277.45" font-family="Helvetica,sans-Serif" font-size="9.00">citation: string</text>
</g>
<!-- OscarNom&#45;&gt;Movie -->
<g id="edge8" class="edge">
<title>OscarNom&#45;&gt;Movie</title>
<path fill="none" stroke="#555555" d="M123.64,-338.59C193.15,-354.65 309.46,-372.83 404.75,-345 439.97,-334.71 474.48,-313.95 502.78,-293.21"/>
<polygon fill="#555555" stroke="#555555" points="510.77,-287.22 505.47,-296.82 507.74,-289.49 502.77,-293.22 502.77,-293.22 502.77,-293.22 507.74,-289.49 500.07,-289.62 510.77,-287.22"/>
<text text-anchor="middle" x="336" y="-361.19" font-family="Helvetica,sans-Serif" font-size="10.00">NOMINATED_MOVIE</text>
</g>
<!-- Person -->
<g id="node9" class="node">
<title>Person</title>
<path fill="#e8f4fd" stroke="#2c3e50" d="M392.75,-335.5C392.75,-335.5 279.25,-335.5 279.25,-335.5 273.25,-335.5 267.25,-329.5 267.25,-323.5 267.25,-323.5 267.25,-220.5 267.25,-220.5 267.25,-214.5 273.25,-208.5 279.25,-208.5 279.25,-208.5 392.75,-208.5 392.75,-208.5 398.75,-208.5 404.75,-214.5 404.75,-220.5 404.75,-220.5 404.75,-323.5 404.75,-323.5 404.75,-329.5 398.75,-335.5 392.75,-335.5"/>
<text text-anchor="start" x="317.25" y="-322.05" font-family="Helvetica,sans-Serif" font-weight="bold" font-size="11.00">Person</text>
<text text-anchor="start" x="305.25" y="-312.95" font-family="Helvetica,sans-Serif" font-size="9.00">name: string 🔑</text>
<text text-anchor="start" x="301.88" y="-303.95" font-family="Helvetica,sans-Serif" font-size="9.00">biography: string</text>
<text text-anchor="start" x="308.25" y="-294.95" font-family="Helvetica,sans-Serif" font-size="9.00">birthday: date</text>
<text text-anchor="start" x="305.62" y="-285.95" font-family="Helvetica,sans-Serif" font-size="9.00">deathday: date</text>
<text text-anchor="start" x="293.25" y="-276.95" font-family="Helvetica,sans-Serif" font-size="9.00">place_of_birth: string</text>
<text text-anchor="start" x="308.62" y="-267.95" font-family="Helvetica,sans-Serif" font-size="9.00">picture: string</text>
<text text-anchor="start" x="304.88" y="-258.95" font-family="Helvetica,sans-Serif" font-size="9.00">popularity: float</text>
<text text-anchor="start" x="304.88" y="-249.95" font-family="Helvetica,sans-Serif" font-size="9.00">gender: integer</text>
<text text-anchor="start" x="275.25" y="-240.95" font-family="Helvetica,sans-Serif" font-size="9.00">known_for_department: string</text>
<text text-anchor="start" x="300.38" y="-231.95" font-family="Helvetica,sans-Serif" font-size="9.00">homepage: string</text>
<text text-anchor="start" x="297.38" y="-222.95" font-family="Helvetica,sans-Serif" font-size="9.00">tmdb_id: integer 🔑</text>
<text text-anchor="start" x="300.38" y="-213.95" font-family="Helvetica,sans-Serif" font-size="9.00">imdb_id: string 🔑</text>
</g>
<!-- OscarNom&#45;&gt;Person -->
<g id="edge9" class="edge">
<title>OscarNom&#45;&gt;Person</title>
<path fill="none" stroke="#555555" d="M123.41,-310.84C162.64,-303.64 214.06,-294.2 256.39,-286.43"/>
<polygon fill="#555555" stroke="#555555" points="266.02,-284.66 257,-290.89 262.31,-285.34 256.19,-286.47 256.19,-286.47 256.19,-286.47 262.31,-285.34 255.38,-282.04 266.02,-284.66"/>
<text text-anchor="middle" x="195.25" y="-308.98" font-family="Helvetica,sans-Serif" font-size="10.00">NOMINATED_PERSON</text>
</g>
<!-- Person&#45;&gt;Movie -->
<g id="edge1" class="edge">
<title>Person&#45;&gt;Movie</title>
<path fill="none" stroke="#555555" d="M405.22,-273.16C433.01,-272.43 465.29,-270.05 494,-264 496.27,-263.52 498.56,-262.99 500.85,-262.4"/>
<polygon fill="#555555" stroke="#555555" points="510.46,-259.68 502.06,-266.74 506.82,-260.71 500.84,-262.41 500.84,-262.41 500.84,-262.41 506.82,-260.71 499.61,-258.08 510.46,-259.68"/>
<text text-anchor="middle" x="458.38" y="-274.08" font-family="Helvetica,sans-Serif" font-size="10.00">ACTED_IN</text>
</g>
<!-- Person&#45;&gt;Movie -->
<g id="edge15" class="edge">
<title>Person&#45;&gt;Movie</title>
<path fill="none" stroke="#555555" d="M405.16,-254.22C411.09,-252.94 417.01,-251.76 422.75,-250.75 448,-246.29 475.92,-242.92 500.6,-240.46"/>
<polygon fill="#555555" stroke="#555555" points="510.48,-239.51 500.96,-244.95 506.72,-239.87 500.53,-240.47 500.53,-240.47 500.53,-240.47 506.72,-239.87 500.1,-235.99 510.48,-239.51"/>
<text text-anchor="middle" x="458.38" y="-252.5" font-family="Helvetica,sans-Serif" font-size="10.00">WORKED_ON</text>
</g>
<!-- User -->
<g id="node12" class="node">
<title>User</title>
<path fill="#e8f4fd" stroke="#2c3e50" d="M374.38,-190.5C374.38,-190.5 297.62,-190.5 297.62,-190.5 291.62,-190.5 285.62,-184.5 285.62,-178.5 285.62,-178.5 285.62,-147.5 285.62,-147.5 285.62,-141.5 291.62,-135.5 297.62,-135.5 297.62,-135.5 374.38,-135.5 374.38,-135.5 380.38,-135.5 386.38,-141.5 386.38,-147.5 386.38,-147.5 386.38,-178.5 386.38,-178.5 386.38,-184.5 380.38,-190.5 374.38,-190.5"/>
<text text-anchor="start" x="323.62" y="-177.05" font-family="Helvetica,sans-Serif" font-weight="bold" font-size="11.00">User</text>
<text text-anchor="start" x="296.25" y="-167.95" font-family="Helvetica,sans-Serif" font-size="9.00">username: string 🔑</text>
<text text-anchor="start" x="293.62" y="-158.95" font-family="Helvetica,sans-Serif" font-size="9.00">display_name: string</text>
<text text-anchor="start" x="309.75" y="-149.95" font-family="Helvetica,sans-Serif" font-size="9.00">avatar: string</text>
<text text-anchor="start" x="317.25" y="-140.95" font-family="Helvetica,sans-Serif" font-size="9.00">url: string</text>
</g>
<!-- User&#45;&gt;Movie -->
<g id="edge3" class="edge">
<title>User&#45;&gt;Movie</title>
<path fill="none" stroke="#555555" d="M386.55,-183.12C398.33,-187.61 410.91,-192.17 422.75,-196 447.95,-204.16 475.98,-211.91 500.76,-218.31"/>
<polygon fill="#555555" stroke="#555555" points="510.35,-220.76 499.55,-222.65 506.68,-219.83 500.66,-218.29 500.66,-218.29 500.66,-218.29 506.68,-219.83 501.77,-213.93 510.35,-220.76"/>
<text text-anchor="middle" x="458.38" y="-217.48" font-family="Helvetica,sans-Serif" font-size="10.00">BLACKLISTED</text>
</g>
<!-- User&#45;&gt;Movie -->
<g id="edge12" class="edge">
<title>User&#45;&gt;Movie</title>
<path fill="none" stroke="#555555" d="M386.54,-163.26C418.19,-164.86 459.6,-169.65 494,-182.75 496.62,-183.75 499.23,-184.85 501.84,-186.04"/>
<polygon fill="#555555" stroke="#555555" points="510.68,-190.5 499.73,-190.02 507.3,-188.8 501.75,-186 501.75,-186 501.75,-186 507.3,-188.8 503.77,-181.98 510.68,-190.5"/>
<text text-anchor="middle" x="458.38" y="-184.5" font-family="Helvetica,sans-Serif" font-size="10.00">RATED</text>
</g>
<!-- User&#45;&gt;Movie -->
<g id="edge14" class="edge">
<title>User&#45;&gt;Movie</title>
<path fill="none" stroke="#555555" d="M386.8,-147.78C418.74,-140.77 460.37,-136.92 494,-151.75 496.94,-153.05 499.81,-154.52 502.62,-156.14"/>
<polygon fill="#555555" stroke="#555555" points="510.86,-161.51 500.03,-159.82 507.69,-159.44 502.48,-156.05 502.48,-156.05 502.48,-156.05 507.69,-159.44 504.94,-152.28 510.86,-161.51"/>
<text text-anchor="middle" x="458.38" y="-153.5" font-family="Helvetica,sans-Serif" font-size="10.00">WATCHLISTED</text>
</g>
</g>
</svg>
